<?xml version="1.0" standalone="no"?>
<!DOCTYPE svg PUBLIC "-//W3C//DTD SVG 20010904//EN"
 "http://www.w3.org/TR/2001/REC-SVG-20010904/DTD/svg10.dtd">
<svg version="1.0" xmlns="http://www.w3.org/2000/svg"
 width="734.000000pt" height="790.000000pt" viewBox="0 0 734.000000 790.000000"
 preserveAspectRatio="xMidYMid meet">

<g transform="translate(0.000000,790.000000) scale(0.100000,-0.100000)"
fill="#000000" stroke="none">
<path d="M2659 6360 c-552 -165 -1066 -545 -1385 -1025 -214 -321 -334 -623
-405 -1022 -30 -168 -38 -535 -15 -723 13 -106 70 -391 82 -408 1 -2 44 17 95
43 345 174 810 597 897 815 38 94 43 158 36 425 -7 279 -2 330 49 430 55 111
177 210 502 410 207 128 329 235 375 330 59 124 41 314 -57 607 -32 94 -53
143 -63 145 -8 1 -58 -11 -111 -27z"/>
<path d="M3302 6000 c-18 -11 -44 -20 -58 -20 -17 0 -28 -7 -31 -20 -3 -11 -9
-18 -13 -15 -10 6 -50 -47 -50 -67 0 -10 -3 -9 -10 2 -9 14 -15 7 -11 -14 1
-5 -9 -25 -23 -45 -14 -20 -32 -65 -40 -101 -23 -101 -48 -430 -41 -545 11
-185 19 -264 32 -318 2 -12 9 -44 13 -71 11 -60 40 -136 52 -136 4 0 6 -11 2
-25 -4 -15 0 -34 8 -48 84 -128 77 -395 -12 -489 -12 -13 -29 -36 -37 -53 -9
-16 -22 -34 -29 -38 -8 -4 -14 -13 -14 -18 0 -13 -47 -53 -109 -93 -25 -17
-48 -33 -51 -36 -12 -14 -168 -52 -181 -44 -13 7 -143 8 -169 0 -17 -5 -20 -4
-12 2 21 15 -197 26 -246 13 -22 -6 -48 -8 -58 -4 -12 4 -15 3 -10 -5 9 -15 1
-15 -26 -1 -18 10 -20 9 -15 -5 4 -11 3 -15 -4 -10 -12 7 -80 -10 -121 -32
-14 -8 -33 -14 -42 -14 -9 0 -16 -4 -16 -9 0 -5 -8 -12 -17 -15 -68 -24 -214
-156 -280 -251 -80 -116 -134 -284 -134 -420 0 -90 16 -180 37 -206 6 -8 14
-26 18 -41 3 -16 11 -28 16 -28 6 0 10 -7 10 -15 0 -9 14 -22 31 -29 18 -7 38
-24 46 -37 8 -13 12 -16 9 -6 -3 11 -2 15 4 12 6 -3 10 -18 11 -33 0 -26 1
-26 11 -6 8 17 4 32 -17 74 -61 121 -82 304 -50 452 18 88 80 217 139 293 93
120 242 217 392 255 94 24 251 26 342 5 64 -15 190 -70 227 -98 18 -14 26 -10
119 61 192 147 304 269 369 398 30 60 70 195 92 313 22 120 22 122 -17 110
-18 -5 -51 -9 -74 -9 l-41 0 -26 123 c-44 203 -58 312 -64 523 -7 255 7 407
69 703 l21 104 75 -7 c88 -7 220 -50 298 -97 133 -80 259 -229 315 -373 28
-72 49 -190 49 -272 0 -107 -58 -287 -120 -374 -12 -16 -18 -35 -15 -40 4 -6
2 -9 -3 -8 -5 2 -30 -20 -55 -48 -26 -29 -78 -73 -116 -99 l-70 -48 5 -66 c27
-349 76 -528 183 -671 46 -61 186 -206 243 -251 l36 -29 12 37 c7 21 21 59 32
85 24 55 10 55 183 1 379 -120 724 -323 1005 -590 102 -96 100 -85 26 -181
-84 -109 -240 -209 -386 -248 -87 -24 -262 -24 -350 -1 -151 40 -306 141 -395
259 -91 120 -155 295 -155 425 l0 48 -83 32 c-111 44 -245 89 -342 115 -117
32 -311 32 -415 0 -41 -13 -112 -35 -157 -48 l-82 -25 34 -45 c19 -25 35 -49
35 -53 0 -4 -18 -24 -40 -46 -21 -21 -37 -42 -35 -45 3 -4 -3 -14 -13 -21 -15
-13 -16 -12 -3 4 24 31 -4 18 -40 -19 -18 -19 -79 -70 -134 -113 -260 -203
-482 -322 -801 -430 -78 -27 -141 -51 -138 -54 3 -2 -6 -2 -19 0 -27 5 -45
-11 -26 -23 8 -4 9 -3 5 4 -9 15 6 16 21 1 8 -8 17 -8 32 0 17 10 20 9 14 -5
-5 -14 -3 -15 15 -5 13 7 38 9 62 5 47 -8 155 13 171 32 6 8 21 14 33 14 12 0
54 16 94 35 39 19 84 38 101 41 17 4 36 13 42 20 6 8 17 14 24 14 6 0 20 9 30
20 10 11 24 20 30 20 7 0 32 16 57 35 25 18 59 42 75 52 62 38 109 71 122 87
7 9 19 16 25 16 20 0 59 47 51 61 -5 8 -4 10 4 5 17 -11 56 18 127 91 44 46
57 66 50 74 -8 9 -8 10 1 5 7 -4 26 6 44 24 18 16 36 30 40 30 5 0 9 7 9 15 0
8 6 15 13 15 7 0 18 9 25 20 22 36 37 23 50 -46 22 -115 111 -281 206 -382
101 -108 187 -135 500 -157 320 -23 424 -50 494 -129 70 -79 86 -140 102 -376
16 -221 29 -273 105 -425 87 -174 109 -214 117 -215 12 0 131 71 224 136 271
187 516 439 686 705 169 263 265 479 333 749 71 284 90 450 82 734 -7 274 -46
498 -127 746 -128 391 -378 781 -676 1055 l-93 85 -48 -30 c-26 -16 -64 -38
-84 -49 -67 -37 -234 -168 -292 -229 -65 -69 -101 -139 -122 -239 -18 -82 -19
-171 -4 -392 9 -143 8 -181 -5 -260 -36 -210 -204 -455 -440 -645 -82 -66
-251 -171 -219 -136 10 10 6 21 -20 53 -48 59 -103 155 -111 197 -2 8 -5 22
-8 30 -22 66 -28 93 -28 134 0 26 -5 56 -10 67 -6 10 -7 19 -3 19 4 0 9 21 10
46 1 25 6 51 11 57 16 22 44 126 36 139 -4 7 -4 10 0 6 11 -10 56 41 56 63 0
10 5 21 12 25 7 5 8 3 3 -6 -5 -9 -4 -11 3 -6 9 5 9 13 2 26 -15 28 -12 36 5
14 13 -16 14 -16 9 -1 -4 11 -1 17 8 17 7 0 22 14 31 30 10 17 22 30 26 30 4
0 7 10 6 22 -1 13 7 30 18 38 10 9 20 28 20 43 1 15 5 27 8 27 4 0 10 16 13
36 5 22 12 34 19 31 9 -3 12 13 12 53 0 32 3 56 6 54 14 -8 19 32 19 150 0 92
-4 127 -15 142 -16 21 -20 38 -6 30 5 -4 4 7 -2 23 -6 17 -13 28 -16 26 -4 -1
-7 13 -8 32 -1 19 -21 73 -45 121 -34 67 -62 105 -133 177 -87 88 -172 155
-198 155 -7 0 -38 9 -70 20 -77 27 -180 27 -225 0z m-165 -1402 c-3 -8 -6 -5
-6 6 -1 11 2 17 5 13 3 -3 4 -12 1 -19z"/>
<path d="M3405 3990 c-33 -13 -65 -55 -71 -92 -13 -75 46 -138 126 -138 34 0
48 6 76 34 33 33 39 52 34 106 -3 37 -17 59 -53 80 -33 21 -78 25 -112 10z"/>
<path d="M1660 2534 c-97 -5 -394 -35 -399 -40 -3 -2 15 -32 39 -67 385 -549
965 -927 1620 -1056 122 -24 280 -44 288 -37 7 8 -68 131 -136 222 -32 44
-114 158 -182 254 -163 232 -250 338 -362 446 -155 148 -283 219 -453 253
-100 20 -294 31 -415 25z"/>
</g>
</svg>
